<svg width="20" height="20" viewBox="0 0 20 20" fill="none" xmlns="http://www.w3.org/2000/svg">
<g clip-path="url(#clip0_740_2170)">
<path d="M0.382905 19.5129C-0.0171639 19.115 -0.0171641 18.4698 0.382905 18.0718L18.2512 0.298459C18.6512 -0.0994859 19.2999 -0.0994864 19.6999 0.298458C20.1 0.696403 20.1 1.3416 19.6999 1.73954L1.83168 19.5129C1.43161 19.9109 0.782974 19.9109 0.382905 19.5129Z" fill="#666666"/>
<path d="M0.300051 0.491576C0.70012 0.093631 1.34876 0.0936308 1.74883 0.491575L19.6171 18.265C20.0172 18.6629 20.0172 19.3081 19.6171 19.706C19.217 20.104 18.5684 20.104 18.1683 19.706L0.300052 1.93266C-0.100017 1.53472 -0.100017 0.88952 0.300051 0.491576Z" fill="#666666"/>
</g>
<defs>
<clipPath id="clip0_740_2170">
<rect width="20" height="20" fill="white"/>
</clipPath>
</defs>
</svg>
