<svg width="175" height="25" viewBox="0 0 175 25" fill="none" xmlns="http://www.w3.org/2000/svg">
<g clip-path="url(#clip0_544_467)">
<circle cx="12.5" cy="12.5" r="12" fill="#7B7468" stroke="#7B7468"/>
<path d="M13.6335 6.81818V17H12.4006V8.1108H12.3409L9.85511 9.76136V8.50852L12.4006 6.81818H13.6335Z" fill="white"/>
<circle cx="87.5" cy="12.5" r="12" fill="#7B7468" stroke="#7B7468"/>
<path d="M84.054 17V16.1051L87.4148 12.4261C87.8092 11.9953 88.134 11.6207 88.3892 11.3026C88.6444 10.9811 88.8333 10.6795 88.956 10.3977C89.0819 10.1127 89.1449 9.81439 89.1449 9.50284C89.1449 9.14489 89.0587 8.83499 88.8864 8.57315C88.7173 8.31132 88.4853 8.10914 88.1903 7.96662C87.8954 7.8241 87.5639 7.75284 87.196 7.75284C86.8049 7.75284 86.4635 7.83404 86.1719 7.99645C85.8835 8.15554 85.6598 8.37926 85.5007 8.66761C85.3449 8.95597 85.267 9.29403 85.267 9.68182H84.0938C84.0938 9.08523 84.2313 8.56155 84.5064 8.1108C84.7815 7.66004 85.156 7.30871 85.63 7.05682C86.1072 6.80492 86.6425 6.67898 87.2358 6.67898C87.8324 6.67898 88.361 6.80492 88.8217 7.05682C89.2824 7.30871 89.6437 7.64844 89.9055 8.07599C90.1674 8.50355 90.2983 8.97917 90.2983 9.50284C90.2983 9.87737 90.2304 10.2436 90.0945 10.6016C89.9619 10.9562 89.7299 11.3523 89.3984 11.7898C89.0703 12.224 88.6146 12.7543 88.0312 13.3807L85.7443 15.8267V15.9062H90.4773V17H84.054Z" fill="white"/>
<circle cx="162.5" cy="12.5" r="12" fill="#7B7468" stroke="#7B7468"/>
<path d="M162.494 17.1392C161.838 17.1392 161.253 17.0265 160.739 16.8011C160.229 16.5758 159.823 16.2625 159.521 15.8615C159.223 15.4571 159.061 14.9882 159.034 14.4545H160.287C160.313 14.7827 160.426 15.0661 160.625 15.3047C160.824 15.54 161.084 15.7223 161.406 15.8516C161.727 15.9808 162.083 16.0455 162.474 16.0455C162.912 16.0455 163.3 15.9692 163.638 15.8168C163.976 15.6643 164.241 15.4522 164.433 15.1804C164.625 14.9086 164.722 14.5938 164.722 14.2358C164.722 13.8613 164.629 13.5315 164.443 13.2464C164.258 12.9581 163.986 12.7327 163.628 12.5703C163.27 12.4079 162.832 12.3267 162.315 12.3267H161.5V11.233H162.315C162.72 11.233 163.074 11.16 163.379 11.0142C163.688 10.8684 163.928 10.6629 164.1 10.3977C164.276 10.1326 164.364 9.82102 164.364 9.46307C164.364 9.11837 164.287 8.81842 164.135 8.56321C163.982 8.308 163.767 8.10914 163.489 7.96662C163.214 7.8241 162.889 7.75284 162.514 7.75284C162.163 7.75284 161.831 7.81747 161.52 7.94673C161.212 8.07268 160.96 8.25663 160.764 8.49858C160.569 8.73722 160.463 9.02557 160.446 9.36364H159.253C159.273 8.83002 159.433 8.36269 159.735 7.96165C160.037 7.55729 160.431 7.24242 160.918 7.01705C161.409 6.79167 161.947 6.67898 162.534 6.67898C163.164 6.67898 163.704 6.80658 164.155 7.06179C164.606 7.31368 164.952 7.64678 165.194 8.06108C165.436 8.47538 165.557 8.92282 165.557 9.40341C165.557 9.9768 165.406 10.4657 165.104 10.87C164.806 11.2744 164.4 11.5545 163.886 11.7102V11.7898C164.529 11.8958 165.031 12.1693 165.393 12.6101C165.754 13.0476 165.935 13.5895 165.935 14.2358C165.935 14.7893 165.784 15.2865 165.482 15.7273C165.184 16.1648 164.776 16.5095 164.259 16.7614C163.742 17.0133 163.154 17.1392 162.494 17.1392Z" fill="white"/>
</g>
<defs>
<clipPath id="clip0_544_467">
<rect width="175" height="25" fill="white"/>
</clipPath>
</defs>
</svg>
