<svg width="100" height="100" viewBox="0 0 100 100" fill="none" xmlns="http://www.w3.org/2000/svg">
<g clip-path="url(#clip0_1084_2420)">
<path d="M0 50C0 63.2608 5.26784 75.9785 14.6447 85.3553C24.0215 94.7322 36.7392 100 50 100C63.2608 100 75.9785 94.7322 85.3553 85.3553C94.7322 75.9785 100 63.2608 100 50C100 36.7392 94.7322 24.0215 85.3553 14.6447C75.9785 5.26784 63.2608 0 50 0C36.7392 0 24.0215 5.26784 14.6447 14.6447C5.26784 24.0215 0 36.7392 0 50ZM36.9 67.5187C36.6117 67.8172 36.2669 68.0553 35.8856 68.2191C35.5044 68.3828 35.0943 68.4691 34.6794 68.4727C34.2644 68.4763 33.8529 68.3972 33.4689 68.2401C33.0848 68.0829 32.7359 67.8509 32.4425 67.5575C32.1491 67.2641 31.9171 66.9152 31.7599 66.5311C31.6028 66.1471 31.5237 65.7356 31.5273 65.3206C31.5309 64.9057 31.6172 64.4956 31.7809 64.1144C31.9447 63.7331 32.1828 63.3883 32.4812 63.1L58.0813 37.5H40.7812C39.9524 37.5 39.1576 37.1708 38.5715 36.5847C37.9855 35.9987 37.6562 35.2038 37.6562 34.375C37.6562 33.5462 37.9855 32.7513 38.5715 32.1653C39.1576 31.5792 39.9524 31.25 40.7812 31.25H65.625C66.4538 31.25 67.2487 31.5792 67.8347 32.1653C68.4208 32.7513 68.75 33.5462 68.75 34.375V59.2188C68.75 60.0476 68.4208 60.8424 67.8347 61.4285C67.2487 62.0145 66.4538 62.3438 65.625 62.3438C64.7962 62.3438 64.0013 62.0145 63.4153 61.4285C62.8292 60.8424 62.5 60.0476 62.5 59.2188L62.5 41.9187L36.9 67.5187Z" fill="#F9FAFC"/>
</g>
<defs>
<clipPath id="clip0_1084_2420">
<rect width="100" height="100" fill="white" transform="translate(100 100) rotate(-180)"/>
</clipPath>
</defs>
</svg>
