<svg width="100" height="20" viewBox="0 0 100 20" fill="none" xmlns="http://www.w3.org/2000/svg">
<g clip-path="url(#clip0_401_468)">
<g clip-path="url(#clip1_401_468)">
<path d="M10 1.80078C12.6719 1.80078 12.9883 1.8125 14.0391 1.85937C15.0156 1.90234 15.543 2.06641 15.8945 2.20313C16.3594 2.38281 16.6953 2.60156 17.043 2.94922C17.3945 3.30078 17.6094 3.63281 17.7891 4.09766C17.9258 4.44922 18.0898 4.98047 18.1328 5.95313C18.1797 7.00781 18.1914 7.32422 18.1914 9.99219C18.1914 12.6641 18.1797 12.9805 18.1328 14.0313C18.0898 15.0078 17.9258 15.5352 17.7891 15.8867C17.6094 16.3516 17.3906 16.6875 17.043 17.0352C16.6914 17.3867 16.3594 17.6016 15.8945 17.7813C15.543 17.918 15.0117 18.082 14.0391 18.125C12.9844 18.1719 12.668 18.1836 10 18.1836C7.32813 18.1836 7.01172 18.1719 5.96094 18.125C4.98438 18.082 4.45703 17.918 4.10547 17.7813C3.64063 17.6016 3.30469 17.3828 2.95703 17.0352C2.60547 16.6836 2.39063 16.3516 2.21094 15.8867C2.07422 15.5352 1.91016 15.0039 1.86719 14.0313C1.82031 12.9766 1.80859 12.6602 1.80859 9.99219C1.80859 7.32031 1.82031 7.00391 1.86719 5.95313C1.91016 4.97656 2.07422 4.44922 2.21094 4.09766C2.39063 3.63281 2.60938 3.29688 2.95703 2.94922C3.30859 2.59766 3.64063 2.38281 4.10547 2.20313C4.45703 2.06641 4.98828 1.90234 5.96094 1.85937C7.01172 1.8125 7.32813 1.80078 10 1.80078ZM10 0C7.28516 0 6.94531 0.0117187 5.87891 0.0585938C4.81641 0.105469 4.08594 0.277344 3.45313 0.523437C2.79297 0.78125 2.23438 1.12109 1.67969 1.67969C1.12109 2.23438 0.78125 2.79297 0.523438 3.44922C0.277344 4.08594 0.105469 4.8125 0.0585938 5.875C0.0117188 6.94531 0 7.28516 0 10C0 12.7148 0.0117188 13.0547 0.0585938 14.1211C0.105469 15.1836 0.277344 15.9141 0.523438 16.5469C0.78125 17.207 1.12109 17.7656 1.67969 18.3203C2.23438 18.875 2.79297 19.2188 3.44922 19.4727C4.08594 19.7188 4.8125 19.8906 5.875 19.9375C6.94141 19.9844 7.28125 19.9961 9.99609 19.9961C12.7109 19.9961 13.0508 19.9844 14.1172 19.9375C15.1797 19.8906 15.9102 19.7188 16.543 19.4727C17.1992 19.2188 17.7578 18.875 18.3125 18.3203C18.8672 17.7656 19.2109 17.207 19.4648 16.5508C19.7109 15.9141 19.8828 15.1875 19.9297 14.125C19.9766 13.0586 19.9883 12.7188 19.9883 10.0039C19.9883 7.28906 19.9766 6.94922 19.9297 5.88281C19.8828 4.82031 19.7109 4.08984 19.4648 3.45703C19.2188 2.79297 18.8789 2.23438 18.3203 1.67969C17.7656 1.125 17.207 0.78125 16.5508 0.527344C15.9141 0.28125 15.1875 0.109375 14.125 0.0625C13.0547 0.0117188 12.7148 0 10 0Z" fill="#555555"/>
<path d="M10 4.86328C7.16406 4.86328 4.86328 7.16406 4.86328 10C4.86328 12.8359 7.16406 15.1367 10 15.1367C12.8359 15.1367 15.1367 12.8359 15.1367 10C15.1367 7.16406 12.8359 4.86328 10 4.86328ZM10 13.332C8.16016 13.332 6.66797 11.8398 6.66797 10C6.66797 8.16016 8.16016 6.66797 10 6.66797C11.8398 6.66797 13.332 8.16016 13.332 10C13.332 11.8398 11.8398 13.332 10 13.332Z" fill="#555555"/>
<path d="M16.5391 4.66016C16.5391 5.32422 16 5.85938 15.3398 5.85938C14.6758 5.85938 14.1406 5.32031 14.1406 4.66016C14.1406 3.99609 14.6797 3.46094 15.3398 3.46094C16 3.46094 16.5391 4 16.5391 4.66016Z" fill="#555555"/>
</g>
<path d="M49.5186 4.15019C50.2376 2.27908 51.8576 1.00218 53.5796 1.00109C56.0244 1.00655 58.0039 3.20972 58 5.92299C58 6.95412 57.6689 8.13053 57.0323 9.42491C56.2467 11.0229 55.0086 12.7761 53.3798 14.6352C52.1289 16.055 50.8029 17.39 49.4089 18.633L48.9995 19L48.5911 18.633C47.1975 17.389 45.8716 16.0537 44.6202 14.6341C42.9904 12.7761 41.7533 11.0229 40.9668 9.42381C40.3301 8.13053 40 6.95522 40 5.92627C39.9961 3.20972 41.9746 1.00655 44.4214 1C46.1512 1 47.783 2.29547 48.4667 4.11742L48.8849 4.97706C48.8961 5.0001 48.9126 5.01935 48.9328 5.03276C48.953 5.04617 48.976 5.05325 48.9995 5.05325C49.023 5.05325 49.046 5.04617 49.0662 5.03276C49.0864 5.01935 49.1029 5.0001 49.1141 4.97706L49.598 3.95576L49.5186 4.15019V4.15019Z" stroke="#555555" stroke-width="1.8"/>
<path fill-rule="evenodd" clip-rule="evenodd" d="M90.807 13.8074L96 19L90.807 13.8074ZM90.7446 3.18646C91.4378 3.87965 91.9877 4.70259 92.3629 5.60829C92.7381 6.51399 92.9312 7.48471 92.9312 8.46503C92.9312 9.44535 92.7381 10.4161 92.3629 11.3218C91.9877 12.2275 91.4378 13.0504 90.7446 13.7436C90.0513 14.4368 89.2283 14.9867 88.3226 15.3618C87.4168 15.737 86.446 15.9301 85.4656 15.9301C84.4852 15.9301 83.5144 15.737 82.6086 15.3618C81.7029 14.9867 80.8799 14.4368 80.1866 13.7436C78.7866 12.3436 78 10.4449 78 8.46503C78 6.48518 78.7866 4.58642 80.1866 3.18646C81.5867 1.78649 83.4856 1 85.4656 1C87.4456 1 89.3445 1.78649 90.7446 3.18646V3.18646Z" stroke="#555555" stroke-width="1.8" stroke-linejoin="round"/>
</g>
<defs>
<clipPath id="clip0_401_468">
<rect width="100" height="20" fill="white"/>
</clipPath>
<clipPath id="clip1_401_468">
<rect width="20" height="20" fill="white"/>
</clipPath>
</defs>
</svg>
