<svg width="52" height="26" viewBox="0 0 52 26" fill="none" xmlns="http://www.w3.org/2000/svg">
<g clip-path="url(#clip0_1097_2628)">
<rect width="52" height="26" fill="white"/>
<path d="M7.41667 4C4.42558 4 2 6.40067 2 9.3625C2 11.7534 2.94792 17.4279 12.2787 23.1642C12.4458 23.2659 12.6377 23.3197 12.8333 23.3197C13.029 23.3197 13.2209 23.2659 13.388 23.1642C22.7187 17.4279 23.6667 11.7534 23.6667 9.3625C23.6667 6.40067 21.2411 4 18.25 4C15.2589 4 12.8333 7.25 12.8333 7.25C12.8333 7.25 10.4077 4 7.41667 4Z" stroke="#666666" stroke-width="2" stroke-linecap="round" stroke-linejoin="round"/>
<path d="M33.4167 4C30.4256 4 28 6.40067 28 9.3625C28 11.7534 28.9479 17.4279 38.2787 23.1642C38.4458 23.2659 38.6377 23.3197 38.8333 23.3197C39.029 23.3197 39.2209 23.2659 39.388 23.1642C48.7187 17.4279 49.6667 11.7534 49.6667 9.3625C49.6667 6.40067 47.2411 4 44.25 4C41.2589 4 38.8333 7.25 38.8333 7.25C38.8333 7.25 36.4077 4 33.4167 4Z" fill="#FF6D6D" stroke="#FF6D6D" stroke-width="2" stroke-linecap="round" stroke-linejoin="round"/>
</g>
<defs>
<clipPath id="clip0_1097_2628">
<rect width="52" height="26" fill="white"/>
</clipPath>
</defs>
</svg>
