<svg width="26" height="26" viewBox="0 0 26 26" fill="none" xmlns="http://www.w3.org/2000/svg">
<path d="M21.6872 11.8003C22.0087 11.8003 22.3191 11.9082 22.5594 12.1035C22.7997 12.2988 22.9532 12.568 22.9908 12.8599L23 13.0003V20.2001C23 21.4316 22.4822 22.6159 21.5536 23.5082C20.6251 24.4005 19.3568 24.9324 18.0113 24.994L17.7487 25H7.25131C5.90403 25 4.60829 24.5267 3.63209 23.678C2.6559 22.8292 2.07393 21.67 2.00656 20.4401L2 20.2001V13.0003C2.00037 12.6944 2.1285 12.4002 2.3582 12.1778C2.58791 11.9554 2.90185 11.8216 3.23589 11.8037C3.56993 11.7857 3.89885 11.8851 4.15544 12.0814C4.41204 12.2777 4.57695 12.5561 4.61647 12.8599L4.62566 13.0003V20.2001C4.62578 20.8054 4.87611 21.3883 5.32649 21.832C5.77688 22.2757 6.39406 22.5475 7.05439 22.5929L7.25131 22.6001H17.7487C18.4109 22.5999 19.0486 22.3711 19.534 21.9595C20.0195 21.5478 20.3168 20.9837 20.3665 20.3801L20.3743 20.2001V13.0003C20.3743 12.682 20.5127 12.3768 20.7589 12.1517C21.0051 11.9267 21.339 11.8003 21.6872 11.8003V11.8003ZM5.00506 7.34837L11.5653 1.3521C11.7912 1.14532 12.0918 1.02098 12.4109 1.00242C12.73 0.983866 13.0455 1.07236 13.2982 1.2513L13.4216 1.3509L19.9897 7.34717C20.2256 7.56292 20.3627 7.85268 20.3733 8.15754C20.3838 8.46241 20.2669 8.7595 20.0464 8.98843C19.8259 9.21735 19.5183 9.36093 19.1861 9.38996C18.8539 9.419 18.5221 9.33131 18.2581 9.14474L18.1347 9.04514L13.8102 5.09842V16.9062C13.8102 17.2001 13.6921 17.4838 13.4784 17.7034C13.2648 17.923 12.9703 18.0634 12.651 18.0977L12.4974 18.1061C12.1758 18.1061 11.8655 17.9982 11.6252 17.8029C11.3849 17.6076 11.2314 17.3385 11.1937 17.0466L11.1845 16.9062V5.09242L6.8614 9.04514C6.63534 9.25175 6.33457 9.37586 6.01552 9.3942C5.69647 9.41254 5.38106 9.32383 5.12847 9.14474L5.00506 9.04514C4.77903 8.83851 4.64324 8.5636 4.62318 8.27197C4.60312 7.98035 4.70016 7.69205 4.8961 7.46117L5.00506 7.34717L11.5653 1.3521L5.00638 7.34717L5.00506 7.34837Z" fill="#666666"/>
</svg>
