<svg width="26" height="26" viewBox="0 0 26 26" fill="none" xmlns="http://www.w3.org/2000/svg">
<g clip-path="url(#clip0_989_1279)">
<path d="M13.0004 1.625C5.81997 1.625 0.000440573 6.35273 0.000440573 12.1875C0.000440573 14.6047 1.01099 16.8187 2.68677 18.6012C1.93013 20.602 0.355909 22.298 0.330519 22.3184C-0.00463755 22.6738 -0.0960438 23.1918 0.0969249 23.6387C0.289894 24.0855 0.731691 24.375 1.21919 24.375C4.34224 24.375 6.80513 23.0699 8.28286 22.0238C9.75044 22.4859 11.3348 22.75 13.0004 22.75C20.1809 22.75 26.0004 18.0223 26.0004 12.1875C26.0004 6.35273 20.1809 1.625 13.0004 1.625ZM13.0004 20.3125C11.6446 20.3125 10.304 20.1043 9.01919 19.698L7.86646 19.3324L6.87622 20.0332C6.15005 20.5461 5.15474 21.1199 3.9563 21.5059C4.327 20.8914 4.68755 20.2008 4.96685 19.4645L5.50513 18.0375L4.45903 16.9305C3.53989 15.9504 2.43794 14.3305 2.43794 12.1875C2.43794 7.70859 7.17583 4.0625 13.0004 4.0625C18.8251 4.0625 23.5629 7.70859 23.5629 12.1875C23.5629 16.6664 18.8251 20.3125 13.0004 20.3125Z" fill="#666666"/>
</g>
<defs>
<clipPath id="clip0_989_1279">
<rect width="26" height="26" fill="white"/>
</clipPath>
</defs>
</svg>
