<svg width="100" height="100" viewBox="0 0 100 100" fill="none" xmlns="http://www.w3.org/2000/svg">
<path d="M87.2501 45.8333C86.3063 37.3838 82.5174 29.5064 76.5055 23.4946C70.4937 17.4827 62.6162 13.6938 54.1667 12.75V8.33334C54.1667 6.04167 52.2917 4.16667 50.0001 4.16667C47.7084 4.16667 45.8334 6.04167 45.8334 8.33334V12.75C37.3839 13.6938 29.5065 17.4827 23.4946 23.4946C17.4828 29.5064 13.6939 37.3838 12.7501 45.8333H8.33341C6.04175 45.8333 4.16675 47.7083 4.16675 50C4.16675 52.2917 6.04175 54.1667 8.33341 54.1667H12.7501C13.6939 62.6162 17.4828 70.4936 23.4946 76.5054C29.5065 82.5173 37.3839 86.3062 45.8334 87.25V91.6667C45.8334 93.9583 47.7084 95.8333 50.0001 95.8333C52.2917 95.8333 54.1667 93.9583 54.1667 91.6667V87.25C62.6162 86.3062 70.4937 82.5173 76.5055 76.5054C82.5174 70.4936 86.3063 62.6162 87.2501 54.1667H91.6667C93.9584 54.1667 95.8334 52.2917 95.8334 50C95.8334 47.7083 93.9584 45.8333 91.6667 45.8333H87.2501ZM50.0001 79.1667C33.8751 79.1667 20.8334 66.125 20.8334 50C20.8334 33.875 33.8751 20.8333 50.0001 20.8333C66.1251 20.8333 79.1667 33.875 79.1667 50C79.1667 66.125 66.1251 79.1667 50.0001 79.1667Z" fill="#CCCCCC"/>
</svg>
