<svg width="498" height="100" viewBox="0 0 498 100" fill="none" xmlns="http://www.w3.org/2000/svg">
<circle cx="302.5" cy="12.5" r="12" stroke="#EEEEEE"/>
<path d="M302.494 17.1392C301.838 17.1392 301.253 17.0265 300.739 16.8011C300.229 16.5758 299.823 16.2625 299.521 15.8615C299.223 15.4571 299.061 14.9882 299.034 14.4545H300.287C300.313 14.7827 300.426 15.0661 300.625 15.3047C300.824 15.54 301.084 15.7223 301.406 15.8516C301.727 15.9808 302.083 16.0455 302.474 16.0455C302.912 16.0455 303.3 15.9692 303.638 15.8168C303.976 15.6643 304.241 15.4522 304.433 15.1804C304.625 14.9086 304.722 14.5938 304.722 14.2358C304.722 13.8613 304.629 13.5315 304.443 13.2464C304.258 12.9581 303.986 12.7327 303.628 12.5703C303.27 12.4079 302.832 12.3267 302.315 12.3267H301.5V11.233H302.315C302.72 11.233 303.074 11.16 303.379 11.0142C303.688 10.8684 303.928 10.6629 304.1 10.3977C304.276 10.1326 304.364 9.82102 304.364 9.46307C304.364 9.11837 304.287 8.81842 304.135 8.56321C303.982 8.308 303.767 8.10914 303.489 7.96662C303.214 7.8241 302.889 7.75284 302.514 7.75284C302.163 7.75284 301.831 7.81747 301.52 7.94673C301.212 8.07268 300.96 8.25663 300.764 8.49858C300.569 8.73722 300.463 9.02557 300.446 9.36364H299.253C299.273 8.83002 299.433 8.36269 299.735 7.96165C300.037 7.55729 300.431 7.24242 300.918 7.01705C301.409 6.79167 301.947 6.67898 302.534 6.67898C303.164 6.67898 303.704 6.80658 304.155 7.06179C304.606 7.31368 304.952 7.64678 305.194 8.06108C305.436 8.47538 305.557 8.92282 305.557 9.40341C305.557 9.9768 305.406 10.4657 305.104 10.87C304.806 11.2744 304.4 11.5545 303.886 11.7102V11.7898C304.529 11.8958 305.031 12.1693 305.393 12.6101C305.754 13.0476 305.935 13.5895 305.935 14.2358C305.935 14.7893 305.784 15.2865 305.482 15.7273C305.184 16.1648 304.776 16.5095 304.259 16.7614C303.742 17.0133 303.154 17.1392 302.494 17.1392Z" fill="#EEEEEE"/>
<circle cx="157.5" cy="12.5" r="12" stroke="#EEEEEE"/>
<path d="M154.054 17V16.1051L157.415 12.4261C157.809 11.9953 158.134 11.6207 158.389 11.3026C158.644 10.9811 158.833 10.6795 158.956 10.3977C159.082 10.1127 159.145 9.81439 159.145 9.50284C159.145 9.14489 159.059 8.83499 158.886 8.57315C158.717 8.31132 158.485 8.10914 158.19 7.96662C157.895 7.8241 157.564 7.75284 157.196 7.75284C156.805 7.75284 156.464 7.83404 156.172 7.99645C155.884 8.15554 155.66 8.37926 155.501 8.66761C155.345 8.95597 155.267 9.29403 155.267 9.68182H154.094C154.094 9.08523 154.231 8.56155 154.506 8.1108C154.781 7.66004 155.156 7.30871 155.63 7.05682C156.107 6.80492 156.643 6.67898 157.236 6.67898C157.832 6.67898 158.361 6.80492 158.822 7.05682C159.282 7.30871 159.644 7.64844 159.906 8.07599C160.167 8.50355 160.298 8.97917 160.298 9.50284C160.298 9.87737 160.23 10.2436 160.094 10.6016C159.962 10.9562 159.73 11.3523 159.398 11.7898C159.07 12.224 158.615 12.7543 158.031 13.3807L155.744 15.8267V15.9062H160.477V17H154.054Z" fill="#EEEEEE"/>
<circle cx="12.5" cy="12.5" r="12" stroke="#EEEEEE"/>
<path d="M13.6335 6.81818V17H12.4006V8.1108H12.3409L9.85511 9.76136V8.50852L12.4006 6.81818H13.6335Z" fill="#EEEEEE"/>
<circle cx="12.5" cy="87.5" r="12" fill="#7B7468" stroke="#7B7468"/>
<path d="M13.6335 81.8182V92H12.4006V83.1108H12.3409L9.85511 84.7614V83.5085L12.4006 81.8182H13.6335Z" fill="white"/>
<circle cx="157.5" cy="87.5" r="12" fill="#7B7468" stroke="#7B7468"/>
<path d="M154.054 92V91.1051L157.415 87.4261C157.809 86.9953 158.134 86.6207 158.389 86.3026C158.644 85.9811 158.833 85.6795 158.956 85.3977C159.082 85.1127 159.145 84.8144 159.145 84.5028C159.145 84.1449 159.059 83.835 158.886 83.5732C158.717 83.3113 158.485 83.1091 158.19 82.9666C157.895 82.8241 157.564 82.7528 157.196 82.7528C156.805 82.7528 156.464 82.834 156.172 82.9964C155.884 83.1555 155.66 83.3793 155.501 83.6676C155.345 83.956 155.267 84.294 155.267 84.6818H154.094C154.094 84.0852 154.231 83.5616 154.506 83.1108C154.781 82.66 155.156 82.3087 155.63 82.0568C156.107 81.8049 156.643 81.679 157.236 81.679C157.832 81.679 158.361 81.8049 158.822 82.0568C159.282 82.3087 159.644 82.6484 159.906 83.076C160.167 83.5036 160.298 83.9792 160.298 84.5028C160.298 84.8774 160.23 85.2436 160.094 85.6016C159.962 85.9562 159.73 86.3523 159.398 86.7898C159.07 87.224 158.615 87.7543 158.031 88.3807L155.744 90.8267V90.9062H160.477V92H154.054Z" fill="white"/>
<circle cx="302.5" cy="87.5" r="12" fill="#7B7468" stroke="#7B7468"/>
<path d="M302.494 92.1392C301.838 92.1392 301.253 92.0265 300.739 91.8011C300.229 91.5758 299.823 91.2625 299.521 90.8615C299.223 90.4571 299.061 89.9882 299.034 89.4545H300.287C300.313 89.7827 300.426 90.0661 300.625 90.3047C300.824 90.54 301.084 90.7223 301.406 90.8516C301.727 90.9808 302.083 91.0455 302.474 91.0455C302.912 91.0455 303.3 90.9692 303.638 90.8168C303.976 90.6643 304.241 90.4522 304.433 90.1804C304.625 89.9086 304.722 89.5938 304.722 89.2358C304.722 88.8613 304.629 88.5315 304.443 88.2464C304.258 87.9581 303.986 87.7327 303.628 87.5703C303.27 87.4079 302.832 87.3267 302.315 87.3267H301.5V86.233H302.315C302.72 86.233 303.074 86.16 303.379 86.0142C303.688 85.8684 303.928 85.6629 304.1 85.3977C304.276 85.1326 304.364 84.821 304.364 84.4631C304.364 84.1184 304.287 83.8184 304.135 83.5632C303.982 83.308 303.767 83.1091 303.489 82.9666C303.214 82.8241 302.889 82.7528 302.514 82.7528C302.163 82.7528 301.831 82.8175 301.52 82.9467C301.212 83.0727 300.96 83.2566 300.764 83.4986C300.569 83.7372 300.463 84.0256 300.446 84.3636H299.253C299.273 83.83 299.433 83.3627 299.735 82.9616C300.037 82.5573 300.431 82.2424 300.918 82.017C301.409 81.7917 301.947 81.679 302.534 81.679C303.164 81.679 303.704 81.8066 304.155 82.0618C304.606 82.3137 304.952 82.6468 305.194 83.0611C305.436 83.4754 305.557 83.9228 305.557 84.4034C305.557 84.9768 305.406 85.4657 305.104 85.87C304.806 86.2744 304.4 86.5545 303.886 86.7102V86.7898C304.529 86.8958 305.031 87.1693 305.393 87.6101C305.754 88.0476 305.935 88.5895 305.935 89.2358C305.935 89.7893 305.784 90.2865 305.482 90.7273C305.184 91.1648 304.776 91.5095 304.259 91.7614C303.742 92.0133 303.154 92.1392 302.494 92.1392Z" fill="white"/>
</svg>
